<?xml version="1.0" standalone="no"?>
<!DOCTYPE svg PUBLIC "-//W3C//DTD SVG 20010904//EN"
 "http://www.w3.org/TR/2001/REC-SVG-20010904/DTD/svg10.dtd">
<svg version="1.0" xmlns="http://www.w3.org/2000/svg"
 width="760.000000pt" height="468.000000pt" viewBox="0 0 760.000000 468.000000"
 preserveAspectRatio="xMidYMid meet">

<g transform="translate(0.000000,468.000000) scale(0.100000,-0.100000)"
fill="#000000" stroke="none">
<path d="M0 2340 l0 -2340 3800 0 3800 0 0 2340 0 2340 -3800 0 -3800 0 0
-2340z m5922 451 c214 -55 260 -131 239 -391 -28 -335 -33 -375 -54 -419 -37
-76 -46 -79 -303 -108 l-229 -26 -1339 -3 c-1213 -4 -1341 -2 -1357 12 -18 16
-59 12 -59 -7 0 -19 -27 -8 -40 16 -7 14 -20 25 -29 25 -14 0 -14 -2 -1 -10
13 -8 11 -11 -7 -16 -13 -4 -23 -11 -23 -16 0 -11 -91 -1 -100 10 -3 4 -32 8
-65 8 -715 16 -872 27 -1023 69 -65 18 -70 23 -50 43 9 9 9 15 2 20 -13 9 -39
90 -31 99 4 3 2 12 -4 20 -9 10 -8 18 5 31 9 10 16 23 16 29 0 12 23 23 48 23
8 0 25 9 37 20 13 12 48 25 83 31 34 6 62 14 62 18 0 3 -7 15 -15 25 -18 24
-20 77 -4 93 9 9 5 13 -17 18 -16 3 -41 12 -57 20 -15 8 -34 12 -42 9 -9 -4
-15 0 -15 10 0 8 -20 39 -43 68 -72 89 -80 104 -67 128 18 34 67 48 221 65
487 52 845 65 1835 65 447 0 925 5 1062 11 295 12 794 25 1083 27 174 2 217
-1 281 -17z"/>
<path d="M4165 2421 l-7 -80 -26 10 c-38 15 -88 2 -112 -28 -33 -42 -24 -117
19 -150 20 -15 93 -17 108 -2 8 8 17 7 31 -2 12 -7 22 -11 24 -9 2 3 2 80 0
173 -3 131 -6 167 -17 167 -9 0 -15 -24 -20 -79z m-30 -103 c21 -9 25 -18 25
-52 0 -46 -6 -58 -36 -74 -68 -36 -124 79 -61 123 26 18 38 19 72 3z"/>
<path d="M2664 2459 c-4 -7 -9 -77 -12 -156 -5 -138 -4 -145 14 -141 16 3 20
15 24 69 5 69 20 99 50 99 29 0 41 -25 47 -99 4 -53 10 -71 21 -71 23 0 13
151 -12 179 -21 23 -56 27 -87 11 -18 -10 -19 -7 -19 55 0 61 -9 80 -26 54z"/>
<path d="M2124 2416 c-11 -18 -17 -59 -21 -140 -6 -114 -6 -116 16 -116 20 0
21 4 21 103 0 115 9 143 33 106 8 -13 20 -43 26 -65 6 -23 18 -44 26 -48 17
-6 18 -5 39 61 10 28 23 57 31 63 19 16 24 -9 28 -130 2 -77 5 -95 17 -95 12
0 15 19 14 110 0 124 -7 160 -30 169 -27 10 -53 -13 -71 -64 -20 -57 -29 -62
-38 -22 -8 40 -42 92 -60 92 -8 0 -22 -11 -31 -24z"/>
<path d="M4483 2428 c-6 -7 -27 -65 -48 -128 -21 -63 -40 -121 -43 -127 -2 -8
4 -13 16 -13 13 0 24 10 31 30 9 28 13 30 63 30 52 0 54 -1 63 -32 6 -18 17
-33 25 -33 19 0 21 84 2 105 -8 8 -26 51 -40 95 -27 80 -47 101 -69 73z m52
-135 c7 -33 7 -33 -34 -33 -23 0 -41 2 -41 4 0 4 27 82 36 106 7 17 27 -23 39
-77z"/>
<path d="M5244 2415 c-4 -9 -2 -21 4 -27 15 -15 44 -1 40 19 -4 23 -36 29 -44
8z"/>
<path d="M2426 2353 c-13 -14 -6 -148 10 -171 18 -26 75 -30 95 -6 11 14 13
14 21 0 5 -9 13 -16 18 -16 12 0 13 170 1 189 -16 25 -31 1 -32 -52 -2 -82
-10 -102 -44 -102 -34 0 -42 20 -44 102 -1 49 -10 70 -25 56z"/>
<path d="M3182 2347 c-12 -6 -22 -15 -22 -20 0 -6 -6 -2 -14 9 -8 10 -16 17
-18 14 -2 -3 -2 -47 0 -97 3 -66 8 -93 17 -93 8 0 14 23 17 71 4 48 11 76 22
87 16 16 19 15 37 -7 14 -18 19 -39 19 -88 0 -56 2 -64 18 -61 14 3 18 16 20
75 3 74 16 99 45 87 13 -4 17 -24 19 -82 3 -64 6 -77 21 -80 15 -3 17 5 17 71
0 57 -4 80 -18 97 -22 27 -65 30 -91 6 -15 -14 -19 -14 -24 -3 -7 19 -38 26
-65 14z"/>
<path d="M3503 2349 c-13 -5 -23 -14 -23 -21 0 -6 -6 -4 -13 7 -18 24 -41 11
-27 -15 5 -10 10 -50 10 -89 0 -54 3 -71 14 -71 10 0 15 19 18 70 3 50 9 75
21 87 17 17 19 17 38 -6 14 -17 19 -39 19 -87 0 -47 4 -64 14 -64 9 0 15 20
18 71 6 79 25 112 52 90 10 -9 16 -36 18 -84 3 -61 6 -72 22 -75 17 -4 18 2
15 77 -5 89 -18 114 -63 114 -15 0 -35 -8 -45 -17 -16 -15 -21 -15 -28 -3 -12
19 -34 26 -60 16z"/>
<path d="M4674 2304 c9 -77 39 -144 64 -144 20 0 52 60 52 98 0 9 11 -8 23
-38 42 -104 90 -68 104 76 5 54 3 64 -10 64 -11 0 -18 -14 -22 -47 -17 -121
-31 -134 -55 -54 -21 67 -36 82 -49 50 -6 -13 -15 -44 -21 -68 -15 -58 -31
-42 -45 46 -9 53 -15 69 -30 71 -16 4 -17 -1 -11 -54z"/>
<path d="M5370 2340 c-35 -35 -20 -70 39 -93 48 -20 60 -36 37 -53 -20 -14
-46 -8 -59 13 -10 17 -37 17 -37 0 0 -26 36 -47 78 -47 34 0 45 5 59 26 22 34
11 52 -48 81 -52 25 -60 56 -16 61 22 3 30 -1 34 -17 8 -30 33 -27 33 4 0 45
-82 63 -120 25z"/>
<path d="M2903 2335 c-52 -36 -47 -142 7 -170 36 -19 48 -19 82 -1 16 9 30 11
33 5 8 -12 45 -12 45 1 0 6 -7 13 -16 17 -12 4 -15 20 -13 79 2 79 -2 94 -24
76 -8 -7 -18 -7 -27 -2 -23 14 -63 12 -87 -5z m91 -31 c3 -9 6 -35 6 -59 0
-34 -5 -47 -19 -55 -28 -14 -38 -13 -61 10 -41 41 -14 120 39 120 17 0 31 -7
35 -16z"/>
<path d="M3785 2327 c-40 -34 -46 -103 -13 -142 19 -22 33 -28 59 -27 19 1 53
2 77 2 40 1 54 12 32 25 -5 3 -10 39 -10 80 0 69 -13 103 -29 77 -4 -7 -12 -8
-21 -2 -26 17 -68 11 -95 -13z m93 -19 c18 -18 15 -94 -4 -112 -35 -35 -84 -5
-84 52 0 58 54 94 88 60z"/>
<path d="M5013 2335 c-13 -9 -28 -33 -34 -54 -10 -33 -9 -45 7 -77 24 -48 67
-64 112 -41 21 10 34 11 41 4 5 -5 18 -6 28 -3 17 7 17 8 1 20 -15 11 -18 28
-18 90 0 69 -9 92 -25 66 -4 -7 -12 -7 -25 0 -27 14 -62 12 -87 -5z m86 -29
c7 -8 11 -36 9 -63 -3 -42 -6 -49 -32 -58 -24 -8 -31 -6 -47 14 -23 28 -24 69
-3 99 17 25 56 29 73 8z"/>
<path d="M5245 2318 c-3 -18 -5 -60 -3 -93 2 -45 7 -60 18 -60 12 0 16 18 18
93 2 76 0 92 -12 92 -9 0 -18 -13 -21 -32z"/>
</g>
</svg>
